<svg width="144" height="43" viewBox="0 0 144 43" fill="none" xmlns="http://www.w3.org/2000/svg">
<path d="M142.919 37.1764C142.919 39.4159 141.09 41.2299 138.827 41.2299H4.8963C2.6344 41.2299 0.798401 39.4159 0.798401 37.1764V4.85158C0.798401 2.61319 2.6344 0.792847 4.8963 0.792847H138.826C141.09 0.792847 142.918 2.61319 142.918 4.85158L142.919 37.1764Z" fill="black"/>
<path d="M138.395 0.841741C140.86 0.841741 142.865 2.82075 142.865 5.25282V36.7699C142.865 39.202 140.86 41.181 138.395 41.181H5.32289C2.85839 41.181 0.852992 39.202 0.852992 36.7699V5.25282C0.852992 2.82075 2.85839 0.841741 5.32289 0.841741H138.395ZM138.395 -2.57748e-05H5.32289C2.39663 -2.57748e-05 0 2.36507 0 5.25282V36.7699C0 39.6577 2.39663 42.0228 5.32289 42.0228H138.395C141.321 42.0228 143.718 39.6577 143.718 36.7699V5.25282C143.718 2.36507 141.321 -2.57748e-05 138.395 -2.57748e-05Z" fill="#A6A6A6"/>
<path d="M32.0737 20.7844C32.0428 17.3985 34.8831 15.7512 35.013 15.6745C33.4044 13.3601 30.9111 13.0439 30.035 13.0186C27.941 12.8012 25.9098 14.2552 24.843 14.2552C23.7551 14.2552 22.1124 13.0397 20.342 13.0754C18.0638 13.11 15.9325 14.4117 14.7636 16.433C12.3513 20.5544 14.1504 26.6109 16.4616 29.9423C17.6178 31.5738 18.9687 33.3955 20.737 33.3314C22.4669 33.261 23.1131 32.243 25.2007 32.243C27.2692 32.243 27.876 33.3314 29.6794 33.2904C31.536 33.261 32.705 31.6515 33.8206 30.0053C35.1567 28.1353 35.6932 26.2936 35.7145 26.1991C35.6709 26.1844 32.1088 24.8428 32.0737 20.7844Z" fill="white"/>
<path d="M28.667 10.8272C29.5975 9.67888 30.2341 8.11668 30.0573 6.53137C28.7107 6.5902 27.0265 7.45062 26.0567 8.57368C25.1986 9.56332 24.4321 11.1854 24.6301 12.7108C26.1429 12.8222 27.6961 11.9576 28.667 10.8272Z" fill="white"/>
<path d="M57.1092 33.0971H54.6916L53.3672 28.9905H48.764L47.5025 33.0971H45.1487L49.7093 19.1161H52.5262L57.1092 33.0971ZM52.968 27.2675L51.7704 23.6168C51.6437 23.2438 51.4063 22.3656 51.056 20.983H51.0134C50.874 21.5776 50.6493 22.4559 50.3406 23.6168L49.1643 27.2675H52.968Z" fill="white"/>
<path d="M68.8376 27.9326C68.8376 29.6471 68.3682 31.0024 67.4292 31.9972C66.5882 32.8829 65.5438 33.3252 64.2972 33.3252C62.9516 33.3252 61.985 32.8482 61.3962 31.8943H61.3537V37.2049H59.084V26.3347C59.084 25.2568 59.0552 24.1505 58.9999 23.0159H60.996L61.1226 24.6138H61.1652C61.9221 23.4099 63.0708 22.809 64.6123 22.809C65.8174 22.809 66.8235 23.2786 67.6283 24.2188C68.4352 25.1601 68.8376 26.3977 68.8376 27.9326ZM66.5254 28.0145C66.5254 27.0333 66.3018 26.2244 65.8526 25.5877C65.3618 24.9238 64.7028 24.5918 63.8767 24.5918C63.3167 24.5918 62.8079 24.7767 62.3533 25.1412C61.8977 25.5089 61.5996 25.989 61.4601 26.5837C61.3899 26.861 61.3547 27.0879 61.3547 27.2665V28.9474C61.3547 29.6807 61.5825 30.2995 62.0382 30.8048C62.4938 31.3102 63.0857 31.5623 63.8139 31.5623C64.6688 31.5623 65.3341 31.2366 65.81 30.5874C66.2869 29.9371 66.5254 29.0798 66.5254 28.0145Z" fill="white"/>
<path d="M80.5874 27.9326C80.5874 29.6471 80.1179 31.0024 79.1779 31.9972C78.3379 32.8829 77.2936 33.3252 76.0469 33.3252C74.7013 33.3252 73.7347 32.8482 73.147 31.8943H73.1045V37.2049H70.8348V26.3347C70.8348 25.2568 70.806 24.1505 70.7507 23.0159H72.7468L72.8734 24.6138H72.916C73.6719 23.4099 74.8206 22.809 76.3631 22.809C77.5672 22.809 78.5732 23.2786 79.3801 24.2188C80.1839 25.1601 80.5874 26.3977 80.5874 27.9326ZM78.2751 28.0145C78.2751 27.0333 78.0505 26.2244 77.6012 25.5877C77.1105 24.9238 76.4536 24.5918 75.6264 24.5918C75.0654 24.5918 74.5576 24.7767 74.102 25.1412C73.6463 25.5089 73.3493 25.989 73.2098 26.5837C73.1406 26.861 73.1045 27.0879 73.1045 27.2665V28.9474C73.1045 29.6807 73.3323 30.2995 73.7858 30.8048C74.2414 31.3091 74.8333 31.5623 75.5636 31.5623C76.4185 31.5623 77.0838 31.2366 77.5597 30.5874C78.0366 29.9371 78.2751 29.0798 78.2751 28.0145Z" fill="white"/>
<path d="M93.7242 29.1764C93.7242 30.3657 93.3058 31.3333 92.4659 32.0802C91.5429 32.8965 90.2579 33.3041 88.6068 33.3041C87.0823 33.3041 85.8602 33.0142 84.9351 32.4332L85.461 30.5663C86.4574 31.161 87.5507 31.4593 88.742 31.4593C89.5968 31.4593 90.2622 31.2681 90.7402 30.8878C91.2161 30.5075 91.4535 29.9969 91.4535 29.3603C91.4535 28.793 91.2576 28.315 90.8648 27.9273C90.4741 27.5396 89.8215 27.1793 88.9102 26.8463C86.4297 25.9333 85.1906 24.596 85.1906 22.8373C85.1906 21.688 85.6249 20.7456 86.4947 20.0123C87.3612 19.278 88.5174 18.9113 89.9631 18.9113C91.2523 18.9113 92.3232 19.133 93.1781 19.5753L92.6107 21.4012C91.8122 20.9725 90.9095 20.7582 89.8992 20.7582C89.1008 20.7582 88.4769 20.9526 88.0298 21.3392C87.6519 21.6848 87.4624 22.1061 87.4624 22.6051C87.4624 23.1577 87.6785 23.6147 88.1128 23.974C88.4907 24.306 89.1774 24.6653 90.1738 25.0529C91.3928 25.5373 92.2881 26.1035 92.864 26.7528C93.4378 27.3999 93.7242 28.2099 93.7242 29.1764Z" fill="white"/>
<path d="M101.229 24.6968H98.7268V29.5914C98.7268 30.8363 99.1675 31.4583 100.051 31.4583C100.457 31.4583 100.793 31.4236 101.059 31.3543L101.122 33.0551C100.675 33.2201 100.086 33.3031 99.357 33.3031C98.4606 33.3031 97.7601 33.0331 97.2545 32.4941C96.7509 31.9541 96.4975 31.0485 96.4975 29.7763V24.6947H95.0071V23.0138H96.4975V21.1679L98.7268 20.504V23.0138H101.229V24.6968Z" fill="white"/>
<path d="M112.516 27.9735C112.516 29.5231 112.067 30.7954 111.171 31.7903C110.231 32.8146 108.983 33.3252 107.428 33.3252C105.929 33.3252 104.735 32.8345 103.845 31.8533C102.955 30.8721 102.51 29.6334 102.51 28.1406C102.51 26.5784 102.968 25.2988 103.887 24.3039C104.803 23.308 106.04 22.81 107.596 22.81C109.095 22.81 110.301 23.3006 111.211 24.2829C112.082 25.2358 112.516 26.466 112.516 27.9735ZM110.161 28.046C110.161 27.1163 109.96 26.3189 109.552 25.6539C109.077 24.8492 108.396 24.4478 107.515 24.4478C106.603 24.4478 105.91 24.8502 105.434 25.6539C105.026 26.32 104.825 27.1299 104.825 28.0881C104.825 29.0178 105.026 29.8152 105.434 30.4792C105.924 31.2839 106.61 31.6852 107.495 31.6852C108.361 31.6852 109.041 31.2755 109.532 30.4581C109.951 29.7805 110.161 28.9747 110.161 28.046Z" fill="white"/>
<path d="M119.894 24.9857C119.669 24.9448 119.43 24.9238 119.178 24.9238C118.38 24.9238 117.762 25.2211 117.328 25.8167C116.95 26.342 116.761 27.006 116.761 27.8076V33.0972H114.492L114.513 26.1907C114.513 25.0288 114.485 23.9709 114.428 23.017H116.405L116.488 24.9458H116.551C116.791 24.2829 117.168 23.7492 117.686 23.349C118.192 22.9886 118.738 22.809 119.326 22.809C119.536 22.809 119.726 22.8237 119.894 22.8499V24.9857Z" fill="white"/>
<path d="M130.044 27.5796C130.044 27.9809 130.018 28.3192 129.961 28.5955H123.152C123.179 29.5914 123.508 30.3531 124.14 30.8784C124.714 31.348 125.456 31.5833 126.367 31.5833C127.376 31.5833 128.295 31.4247 129.123 31.1063L129.478 32.6612C128.511 33.0772 127.37 33.2842 126.053 33.2842C124.469 33.2842 123.226 32.824 122.321 31.9048C121.418 30.9855 120.966 29.7511 120.966 28.2026C120.966 26.6824 121.386 25.4165 122.228 24.4069C123.11 23.329 124.301 22.79 125.8 22.79C127.272 22.79 128.387 23.329 129.144 24.4069C129.743 25.2631 130.044 26.3221 130.044 27.5796ZM127.88 26.9986C127.895 26.3347 127.747 25.761 127.439 25.2767C127.047 24.6537 126.443 24.3428 125.631 24.3428C124.889 24.3428 124.285 24.6464 123.824 25.2557C123.446 25.74 123.222 26.321 123.152 26.9976H127.88V26.9986Z" fill="white"/>
<path d="M46.1455 10.8577H46.9669C47.8008 10.8577 48.2796 11.2374 48.2796 11.8467V11.8551C48.2796 12.456 47.7677 12.8567 46.9958 12.8567C46.2404 12.8567 45.7244 12.5145 45.6625 11.9427L45.6584 11.9135H44.7585V11.9552C44.8287 12.9944 45.7162 13.6788 46.9958 13.6788C48.2507 13.6788 49.2208 12.9193 49.2208 11.901V11.8926C49.2208 11.0496 48.6676 10.5113 47.8957 10.432V10.361C48.5562 10.2066 49.0144 9.65156 49.0144 8.99217V8.98382C49.0144 8.0323 48.1888 7.36456 47.0165 7.36456C45.8028 7.36456 45.002 8.00726 44.9195 9.04225L44.9112 9.10902H45.7987L45.8028 9.07981C45.8606 8.51641 46.3065 8.18671 46.9876 8.18671C47.6852 8.18671 48.098 8.5331 48.098 9.07981V9.08815C48.098 9.66825 47.648 10.0689 46.9422 10.0689H46.1455V10.8577Z" fill="white"/>
<path d="M51.3648 13.6079C51.9592 13.6079 52.4298 13.3491 52.694 12.8901H52.7641V13.5328H53.6516V10.432C53.6516 9.48045 53.0159 8.91287 51.889 8.91287C50.8694 8.91287 50.1635 9.4095 50.0562 10.1524L50.0521 10.1816H50.9148L50.9189 10.1649C51.0263 9.84353 51.3524 9.6599 51.8477 9.6599C52.4545 9.6599 52.7641 9.93534 52.7641 10.432V10.8326L51.5505 10.9036C50.4814 10.9703 49.8787 11.4419 49.8787 12.2515V12.2599C49.8787 13.082 50.5103 13.6079 51.3648 13.6079ZM50.7703 12.2223V12.214C50.7703 11.805 51.051 11.5796 51.6702 11.5421L52.7641 11.4711V11.8593C52.7641 12.4435 52.2729 12.8859 51.6042 12.8859C51.1212 12.8859 50.7703 12.6397 50.7703 12.2223Z" fill="white"/>
<path d="M57.7275 9.71416V9.00051H54.7678V13.5328H55.6635V9.71416H57.7275Z" fill="white"/>
<path d="M58.5588 15.0435H59.4546V12.815H59.5206C59.76 13.3032 60.2843 13.6079 60.8993 13.6079C62.0387 13.6079 62.7569 12.7064 62.7569 11.2708V11.2625C62.7569 9.83518 62.0304 8.92122 60.8993 8.92122C60.2719 8.92122 59.7807 9.21753 59.5206 9.71416H59.4546V9.00051H58.5588V15.0435ZM60.6475 12.8358C59.9004 12.8358 59.4381 12.239 59.4381 11.2708V11.2625C59.4381 10.2943 59.9004 9.69746 60.6475 9.69746C61.3947 9.69746 61.8446 10.2859 61.8446 11.2625V11.2708C61.8446 12.2432 61.3947 12.8358 60.6475 12.8358Z" fill="white"/>
<path d="M63.9556 15.127C64.8638 15.127 65.3178 14.7889 65.6976 13.708L67.3653 9.00051H66.4241L65.3054 12.623H65.227L64.1042 9.00051H63.1383L64.7647 13.5369L64.6986 13.7706C64.5665 14.2297 64.3147 14.4092 63.8978 14.4092C63.7946 14.4092 63.6832 14.405 63.5965 14.3925V15.1061C63.7121 15.1186 63.8442 15.127 63.9556 15.127Z" fill="white"/>
<path d="M69.5712 13.6204C70.6775 13.6204 71.404 13.0403 71.404 12.2015V12.1931C71.404 11.684 71.0985 11.3251 70.4876 11.1957V11.1247C70.954 11.0162 71.2513 10.6281 71.2513 10.1607V10.1524C71.2513 9.40115 70.6321 8.9087 69.596 8.9087C68.5764 8.9087 67.9324 9.41368 67.8292 10.1816L67.8251 10.2108H68.6837L68.6878 10.1899C68.7539 9.8477 69.0965 9.62652 69.5753 9.62652C70.1119 9.62652 70.3803 9.88944 70.3803 10.2442V10.2525C70.3803 10.6699 70.0996 10.891 69.5588 10.891H68.8942V11.5504H69.5629C70.1862 11.5504 70.5206 11.7633 70.5206 12.2015V12.2098C70.5206 12.6188 70.1656 12.9068 69.5629 12.9068C69.0552 12.9068 68.6878 12.6898 68.597 12.3308L68.5887 12.3016H67.7054L67.7095 12.335C67.8044 13.153 68.5764 13.6204 69.5712 13.6204Z" fill="white"/>
<path d="M72.3344 13.5328H73.2219L75.2487 10.3402H75.3271V13.5328H76.2146V9.00051H75.3271L73.3003 12.1806H73.2219V9.00051H72.3344V13.5328Z" fill="white"/>
<path d="M80.7115 9.00051H76.9923V9.71416H78.404V13.5328H79.2998V9.71416H80.7115V9.00051Z" fill="white"/>
<path d="M83.2229 13.6204C84.3705 13.6204 84.9897 12.9527 85.1383 12.3559L85.1465 12.3183L84.2838 12.3225L84.2673 12.3559C84.1599 12.5896 83.8173 12.8776 83.2435 12.8776C82.5046 12.8776 82.0341 12.3726 82.0176 11.5045H85.1961V11.1873C85.1961 9.82684 84.4283 8.91287 83.1775 8.91287C81.9267 8.91287 81.1177 9.86022 81.1177 11.275V11.2792C81.1177 12.7148 81.9102 13.6204 83.2229 13.6204ZM83.1816 9.65573C83.7884 9.65573 84.2384 10.048 84.3086 10.8577H82.0299C82.1084 10.0772 82.5707 9.65573 83.1816 9.65573Z" fill="white"/>
<path d="M88.2003 13.5328H90.2477C91.2343 13.5328 91.8246 13.0153 91.8246 12.239V12.2307C91.8246 11.6923 91.4448 11.2833 90.8628 11.2124V11.1414C91.3045 11.058 91.6223 10.6365 91.6223 10.1732V10.1649C91.6223 9.45958 91.1063 9.00051 90.2271 9.00051H88.2003V13.5328ZM89.0878 10.8994V9.66408H90.0454C90.5201 9.66408 90.7389 9.9103 90.7389 10.2734V10.2817C90.7389 10.6824 90.4871 10.8994 89.9505 10.8994H89.0878ZM89.0878 12.865V11.5504H90.0165C90.6151 11.5504 90.9082 11.7591 90.9082 12.1973V12.2056C90.9082 12.623 90.6481 12.865 90.1321 12.865H89.0878Z" fill="white"/>
</svg>
