<svg width="144" height="43" viewBox="0 0 144 43" fill="none" xmlns="http://www.w3.org/2000/svg">
<path d="M138.395 42.0228H5.32289C2.39663 42.0228 0 39.6577 0 36.7699V5.25283C0 2.36507 2.39663 -2.10506e-05 5.32289 -2.10506e-05H138.395C141.321 -2.10506e-05 143.718 2.36507 143.718 5.25283V36.7699C143.718 39.6577 141.321 42.0228 138.395 42.0228Z" fill="black"/>
<path d="M138.395 0.841745C140.86 0.841745 142.865 2.82076 142.865 5.25283V36.7699C142.865 39.202 140.86 41.181 138.395 41.181H5.32289C2.85839 41.181 0.852992 39.202 0.852992 36.7699V5.25283C0.852992 2.82076 2.85839 0.841745 5.32289 0.841745H138.395ZM138.395 -2.10506e-05H5.32289C2.39663 -2.10506e-05 0 2.36507 0 5.25283V36.7699C0 39.6577 2.39663 42.0228 5.32289 42.0228H138.395C141.321 42.0228 143.718 39.6577 143.718 36.7699V5.25283C143.718 2.36507 141.321 -2.10506e-05 138.395 -2.10506e-05Z" fill="#A6A6A6"/>
<path d="M44.7011 14.7221V13.5327H48.9693V14.7221H49.8197V12.7273H49.0767V7.51057H45.1262L44.9074 11.1622C44.862 11.9594 44.7134 12.4727 44.2883 12.7273H43.8548V14.7221H44.7011ZM45.7661 11.2082L45.9477 8.31602H48.152V12.7273H45.3656V12.6688C45.6422 12.3308 45.7248 11.8759 45.7661 11.2082Z" fill="white"/>
<path d="M53.1979 13.6788C54.9193 13.6788 55.976 12.4518 55.976 10.5237V10.5154C55.976 8.58312 54.911 7.3645 53.1979 7.3645C51.489 7.3645 50.4157 8.57895 50.4157 10.5154V10.5237C50.4157 12.456 51.4642 13.6788 53.1979 13.6788ZM53.1979 12.8525C52.0504 12.8525 51.361 11.9343 51.361 10.5237V10.5154C51.361 9.09227 52.071 8.19082 53.1979 8.19082C54.3248 8.19082 55.0307 9.09227 55.0307 10.5154V10.5237C55.0307 11.9343 54.329 12.8525 53.1979 12.8525Z" fill="white"/>
<path d="M59.5318 13.6788C60.861 13.6788 61.831 12.9109 62.0044 11.7549V11.7298H61.088L61.0797 11.7465C60.9105 12.4268 60.3202 12.8525 59.5318 12.8525C58.4585 12.8525 57.7898 11.9552 57.7898 10.5279V10.5196C57.7898 9.08809 58.4585 8.19082 59.5276 8.19082C60.3119 8.19082 60.9105 8.67076 61.0839 9.40944V9.42196H62.0003L62.0044 9.40109C61.8475 8.20334 60.8403 7.3645 59.5276 7.3645C57.8723 7.3645 56.8445 8.57477 56.8445 10.5196V10.5279C56.8445 12.4685 57.8765 13.6788 59.5318 13.6788Z" fill="white"/>
<path d="M64.3176 13.5327H65.2423V8.31602H67.1122V7.51057H62.4435V8.31602H64.3176V13.5327Z" fill="white"/>
<path d="M68.6659 13.5786C69.7144 13.5786 70.1644 12.9443 70.6432 11.8091L72.4678 7.51057H71.5018L70.0612 11.2123H69.991L68.5091 7.51057H67.5225L69.5369 12.1931C69.314 12.5937 69.0292 12.7565 68.6123 12.7565C68.4348 12.7565 68.3274 12.7356 68.2696 12.7231V13.5244C68.3109 13.5411 68.4637 13.5786 68.6659 13.5786Z" fill="white"/>
<path d="M78.2072 13.5327V7.51057H73.361V13.5327H74.2856V8.31602H77.2825V13.5327H78.2072Z" fill="white"/>
<path d="M79.5586 13.5327H80.4833V10.8659H83.542V13.5327H84.4626V7.51057H83.542V10.0563H80.4833V7.51057H79.5586V13.5327Z" fill="white"/>
<path d="M88.3527 13.6788C90.074 13.6788 91.1308 12.4518 91.1308 10.5237V10.5154C91.1308 8.58312 90.0658 7.3645 88.3527 7.3645C86.6437 7.3645 85.5705 8.57895 85.5705 10.5154V10.5237C85.5705 12.456 86.6189 13.6788 88.3527 13.6788ZM88.3527 12.8525C87.2051 12.8525 86.5157 11.9343 86.5157 10.5237V10.5154C86.5157 9.09227 87.2258 8.19082 88.3527 8.19082C89.4796 8.19082 90.1855 9.09227 90.1855 10.5154V10.5237C90.1855 11.9343 89.4837 12.8525 88.3527 12.8525Z" fill="white"/>
<path d="M94.329 13.5327H96.7768C98.0482 13.5327 98.8119 12.89 98.8119 11.8342V11.8258C98.8119 11.0412 98.2753 10.4653 97.4703 10.3777V10.3067C98.0565 10.2065 98.5147 9.64315 98.5147 9.01715V9.0088C98.5147 8.08649 97.8419 7.51057 96.7232 7.51057H94.329V13.5327ZM96.5085 8.27429C97.1938 8.27429 97.5942 8.60399 97.5942 9.17156V9.17991C97.5942 9.76418 97.169 10.073 96.3517 10.073H95.2536V8.27429H96.5085ZM96.5374 10.7866C97.4084 10.7866 97.8666 11.1205 97.8666 11.7674V11.7757C97.8666 12.4226 97.4249 12.769 96.5911 12.769H95.2536V10.7866H96.5374Z" fill="white"/>
<path d="M72.535 22.8525C70.0345 22.8525 67.9919 24.7304 67.9919 27.3214C67.9919 29.8913 70.0345 31.7889 72.535 31.7889C75.0407 31.7889 77.0834 29.8913 77.0834 27.3214C77.0834 24.7304 75.0407 22.8525 72.535 22.8525ZM72.535 30.0292C71.163 30.0292 69.9826 28.9117 69.9826 27.3214C69.9826 25.7101 71.163 24.6122 72.535 24.6122C73.9069 24.6122 75.0926 25.7101 75.0926 27.3214C75.0926 28.9117 73.9069 30.0292 72.535 30.0292ZM62.6224 22.8525C60.1167 22.8525 58.0793 24.7304 58.0793 27.3214C58.0793 29.8913 60.1167 31.7889 62.6224 31.7889C65.1268 31.7889 67.1655 29.8913 67.1655 27.3214C67.1655 24.7304 65.1268 22.8525 62.6224 22.8525ZM62.6224 30.0292C61.2491 30.0292 60.0648 28.9117 60.0648 27.3214C60.0648 25.7101 61.2491 24.6122 62.6224 24.6122C63.9944 24.6122 65.1747 25.7101 65.1747 27.3214C65.1747 28.9117 63.9944 30.0292 62.6224 30.0292ZM50.8269 24.2222V26.1211H55.4219C55.2875 27.1822 54.9282 27.9622 54.3773 28.5059C53.7066 29.1625 52.662 29.8913 50.8269 29.8913C47.9991 29.8913 45.7848 27.6392 45.7848 24.8486C45.7848 22.058 47.9991 19.8059 50.8269 19.8059C52.3559 19.8059 53.4684 20.3955 54.2894 21.1598L55.6454 19.8216C54.497 18.7395 52.9694 17.9083 50.8269 17.9083C46.9492 17.9083 43.6902 21.0219 43.6902 24.8486C43.6902 28.6753 46.9492 31.7889 50.8269 31.7889C52.9228 31.7889 54.497 31.1113 55.7346 29.8401C57.0028 28.5886 57.398 26.8289 57.398 25.408C57.398 24.9668 57.3607 24.561 57.2942 24.2222H50.8269ZM99.0602 25.6943C98.6863 24.6949 97.5326 22.8525 95.1825 22.8525C92.8537 22.8525 90.9149 24.6634 90.9149 27.3214C90.9149 29.8244 92.8338 31.7889 95.4061 31.7889C97.486 31.7889 98.6863 30.5374 99.18 29.8086L97.6364 28.7935C97.1214 29.5368 96.4201 30.0292 95.4061 30.0292C94.3987 30.0292 93.6761 29.5735 93.213 28.6753L99.2691 26.2025L99.0602 25.6943ZM92.8857 27.1822C92.8338 25.4592 94.2417 24.5768 95.2504 24.5768C96.0408 24.5768 96.7115 24.9668 96.9351 25.5249L92.8857 27.1822ZM87.9633 31.5171H89.9541V18.385H87.9633V31.5171ZM84.7031 23.8479H84.6365C84.1894 23.3253 83.3364 22.8525 82.2559 22.8525C79.9883 22.8525 77.9151 24.8171 77.9151 27.3358C77.9151 29.8401 79.9883 31.7889 82.2559 31.7889C83.3364 31.7889 84.1894 31.3122 84.6365 30.7738H84.7031V31.4147C84.7031 33.1231 83.7782 34.0411 82.2865 34.0411C81.0702 34.0411 80.3157 33.1744 80.0043 32.4455L78.273 33.1586C78.772 34.3431 80.0935 35.8008 82.2865 35.8008C84.6206 35.8008 86.59 34.4455 86.59 31.1481V23.1243H84.7031V23.8479ZM82.4262 30.0292C81.0542 30.0292 79.9058 28.8959 79.9058 27.3358C79.9058 25.7613 81.0542 24.6122 82.4262 24.6122C83.7782 24.6122 84.8441 25.7613 84.8441 27.3358C84.8441 28.8959 83.7782 30.0292 82.4262 30.0292ZM108.381 18.385H103.619V31.5171H105.605V26.5413H108.381C110.586 26.5413 112.748 24.9668 112.748 22.4625C112.748 19.9595 110.58 18.385 108.381 18.385ZM108.432 24.7146H105.605V20.2116H108.432C109.915 20.2116 110.761 21.4264 110.761 22.4625C110.761 23.4789 109.915 24.7146 108.432 24.7146ZM120.706 22.8276C119.271 22.8276 117.779 23.4526 117.166 24.8381L118.928 25.5669C119.307 24.8381 120.004 24.6017 120.742 24.6017C121.772 24.6017 122.816 25.2124 122.832 26.2905V26.4284C122.473 26.2235 121.704 25.9202 120.758 25.9202C118.86 25.9202 116.926 26.951 116.926 28.8749C116.926 30.6346 118.481 31.7679 120.228 31.7679C121.564 31.7679 122.301 31.173 122.764 30.481H122.832V31.4961H124.75V26.4586C124.75 24.1303 122.988 22.8276 120.706 22.8276ZM120.466 30.024C119.817 30.024 118.912 29.7062 118.912 28.9117C118.912 27.8952 120.04 27.5052 121.017 27.5052C121.891 27.5052 122.301 27.6956 122.832 27.9465C122.677 29.1625 121.616 30.024 120.466 30.024ZM131.736 23.1152L129.454 28.8079H129.386L127.027 23.1152H124.886L128.431 31.0706L126.408 35.4974H128.482L133.945 23.1152H131.736ZM113.839 31.5171H115.83V18.385H113.839V31.5171Z" fill="white"/>
<path d="M11.1088 7.91995C10.7961 8.243 10.6151 8.74597 10.6151 9.39732V32.6307C10.6151 33.282 10.7961 33.785 11.1088 34.108L11.186 34.179L24.3788 21.165V20.8577L11.186 7.84379L11.1088 7.91995Z" fill="url(#paint0_linear_3_38)"/>
<path d="M28.7715 25.5052L24.3788 21.165V20.8577L28.7768 16.5176L28.8753 16.574L34.0838 19.4986C35.5702 20.3285 35.5702 21.6942 34.0838 22.5294L28.8753 25.4487L28.7715 25.5052Z" fill="url(#paint1_linear_3_38)"/>
<path d="M28.8753 25.4487L24.3788 21.0114L11.1089 34.108C11.6026 34.6202 12.4076 34.6819 13.3232 34.1698L28.8753 25.4487Z" fill="url(#paint2_linear_3_38)"/>
<path d="M28.8753 16.574L13.3232 7.85297C12.4076 7.34607 11.6026 7.40779 11.1089 7.91994L24.3788 21.0114L28.8753 16.574Z" fill="url(#paint3_linear_3_38)"/>
<defs>
<linearGradient id="paint0_linear_3_38" x1="23.2074" y1="32.8726" x2="5.57787" y2="15.008" gradientUnits="userSpaceOnUse">
<stop stop-color="#00A0FF"/>
<stop offset="0.0066" stop-color="#00A1FF"/>
<stop offset="0.2601" stop-color="#00BEFF"/>
<stop offset="0.5122" stop-color="#00D2FF"/>
<stop offset="0.7604" stop-color="#00DFFF"/>
<stop offset="1" stop-color="#00E3FF"/>
</linearGradient>
<linearGradient id="paint1_linear_3_38" x1="36.0193" y1="21.0099" x2="10.2599" y2="21.0099" gradientUnits="userSpaceOnUse">
<stop stop-color="#FFE000"/>
<stop offset="0.4087" stop-color="#FFBD00"/>
<stop offset="0.7754" stop-color="#FFA500"/>
<stop offset="1" stop-color="#FF9C00"/>
</linearGradient>
<linearGradient id="paint2_linear_3_38" x1="26.4303" y1="18.5992" x2="2.52317" y2="-5.62668" gradientUnits="userSpaceOnUse">
<stop stop-color="#FF3A44"/>
<stop offset="1" stop-color="#C31162"/>
</linearGradient>
<linearGradient id="paint3_linear_3_38" x1="7.76853" y1="41.8376" x2="18.4441" y2="31.0198" gradientUnits="userSpaceOnUse">
<stop stop-color="#32A071"/>
<stop offset="0.0685" stop-color="#2DA771"/>
<stop offset="0.4762" stop-color="#15CF74"/>
<stop offset="0.8009" stop-color="#06E775"/>
<stop offset="1" stop-color="#00F076"/>
</linearGradient>
</defs>
</svg>
