<svg width="24" height="24" viewBox="0 0 24 24" fill="none" xmlns="http://www.w3.org/2000/svg">
<g clip-path="url(#clip0_42_18)">
<path fill-rule="evenodd" clip-rule="evenodd" d="M19.777 4.43C20.0241 4.32599 20.2946 4.29011 20.5603 4.32611C20.826 4.36211 21.0771 4.46866 21.2877 4.63468C21.4982 4.8007 21.6604 5.02011 21.7574 5.27008C21.8543 5.52005 21.8825 5.79144 21.839 6.056L19.571 19.813C19.351 21.14 17.895 21.901 16.678 21.24C15.66 20.687 14.148 19.835 12.788 18.946C12.108 18.501 10.025 17.076 10.281 16.062C10.501 15.195 14.001 11.937 16.001 10C16.786 9.239 16.428 8.8 15.501 9.5C13.199 11.238 9.50299 13.881 8.28099 14.625C7.20299 15.281 6.64099 15.393 5.96899 15.281C4.74299 15.077 3.60599 14.761 2.67799 14.376C1.42399 13.856 1.48499 12.132 2.67699 11.63L19.777 4.43Z" fill="white"/>
</g>
<defs>
<clipPath id="clip0_42_18">
<rect width="24" height="24" fill="white"/>
</clipPath>
</defs>
</svg>
